<svg xmlns="http://www.w3.org/2000/svg" width="130.922" height="160.332" viewBox="0 0 130.922 160.332">
  <g id="astraunet_2" data-name="astraunet 2" transform="translate(-750.6 -534.865)">
    <g id="Group_184" data-name="Group 184" transform="translate(750.6 679.144)" opacity="0.11">
      <ellipse id="Ellipse_19" data-name="Ellipse 19" cx="65.461" cy="8.027" rx="65.461" ry="8.027" transform="translate(0)" fill="#371a45"/>
    </g>
    <g id="Group_287" data-name="Group 287" transform="translate(761.763 534.865)">
      <g id="Group_185" data-name="Group 185" transform="translate(24.663 84.817)">
        <path id="Path_293" data-name="Path 293" d="M1509.947,2177.79v25.154a8.353,8.353,0,0,1-.671,3.291,7.479,7.479,0,0,1-6.785,4.694h-44.435a7.315,7.315,0,0,1-6.12-3.442,8.353,8.353,0,0,1-1.336-4.548v-25.154a8.317,8.317,0,0,1,1.158-4.254,7.47,7.47,0,0,1,5.229-3.646,7.219,7.219,0,0,1,1.069-.084h44.435a7.008,7.008,0,0,1,1.053.079,7.3,7.3,0,0,1,4.2,2.253A8.271,8.271,0,0,1,1509.947,2177.79Z" transform="translate(-1449.751 -2168.957)" fill="#fff"/>
        <path id="Path_294" data-name="Path 294" d="M1487.14,2196.516H1442.7a8.194,8.194,0,0,1-6.832-3.825,9.154,9.154,0,0,1-1.472-5.009v-25.155a9.191,9.191,0,0,1,1.273-4.684,8.269,8.269,0,0,1,5.826-4.05,7.581,7.581,0,0,1,1.2-.094h44.441a7.928,7.928,0,0,1,5.873,2.6,9.061,9.061,0,0,1,2.431,6.229v25.154a9.106,9.106,0,0,1-.739,3.626A8.323,8.323,0,0,1,1487.14,2196.516ZM1442.7,2155.4a6.13,6.13,0,0,0-.938.073,6.6,6.6,0,0,0-4.632,3.243,7.483,7.483,0,0,0-1.037,3.825v25.154a7.471,7.471,0,0,0,1.2,4.087,6.493,6.493,0,0,0,5.412,3.055h44.43a6.639,6.639,0,0,0,6.01-4.181,7.494,7.494,0,0,0,.6-2.96v-25.154a7.375,7.375,0,0,0-1.975-5.072,6.392,6.392,0,0,0-3.709-2,6.109,6.109,0,0,0-.927-.068H1442.7Z" transform="translate(-1434.4 -2153.7)" fill="#371a45"/>
      </g>
      <g id="Group_214" data-name="Group 214" transform="translate(0 118.78)">
        <g id="Group_186" data-name="Group 186" transform="translate(2.323 0.843)">
          <path id="Path_295" data-name="Path 295" d="M1113.694,2821.212s-5.842,27.874-7.749,28.492c-2.724.885-9.279-.047-9.279-.047s-13.759-1.865-26-2.693c-3.521-.241-6.916-.393-9.819-.393-2.74,0-5.915.136-9.221.351-12.391.812-26.6,2.735-26.6,2.735s-6.555.933-9.279.047c-1.907-.618-7.749-28.492-7.749-28.492,3.474-5.025,11.506-4.5,15.336,4.375a14.382,14.382,0,0,1,2.609-3.1,13,13,0,0,1,4.254-2.525,14.166,14.166,0,0,1,1.373-.424c6.324-1.656,12.093,1.153,16.153,4.218.372.278.723.561,1.064.838.031.031.068.052.1.084.267.22.529.445.776.666a17.33,17.33,0,0,0,4.045,2.651c.21.094.419.189.634.278a16.766,16.766,0,0,0,6.5,1.32,16.951,16.951,0,0,0,11.181-4.249c3.432-3.018,8.739-6.5,14.812-6.287a15.147,15.147,0,0,1,4.663.906,13,13,0,0,1,4.826,3.065,14.886,14.886,0,0,1,2.038,2.562C1102.188,2816.717,1110.215,2816.182,1113.694,2821.212Z" transform="translate(-1008 -2818.022)" fill="#fff"/>
        </g>
        <g id="Group_187" data-name="Group 187" transform="translate(46.313 29.664)" opacity="0.35">
          <path id="Path_296" data-name="Path 296" d="M1848.5,3368.1c-.3.016-.6.037-.9.058C1847.9,3368.137,1848.2,3368.121,1848.5,3368.1Z" transform="translate(-1847.6 -3368.1)" fill="#371a45"/>
        </g>
        <g id="Group_188" data-name="Group 188" transform="translate(47.853 29.554)" opacity="0.35">
          <path id="Path_297" data-name="Path 297" d="M1878.331,3366c-.44.021-.885.047-1.331.068C1877.445,3366.047,1877.891,3366.026,1878.331,3366Z" transform="translate(-1877 -3366)" fill="#371a45"/>
        </g>
        <g id="Group_189" data-name="Group 189" transform="translate(47.209 29.627)" opacity="0.35">
          <path id="Path_298" data-name="Path 298" d="M1865.344,3367.4c-.215.011-.43.026-.644.037C1864.915,3367.426,1865.13,3367.411,1865.344,3367.4Z" transform="translate(-1864.7 -3367.4)" fill="#371a45"/>
        </g>
        <g id="Group_190" data-name="Group 190" transform="translate(2.323 1.859)" opacity="0.35">
          <path id="Path_299" data-name="Path 299" d="M1113.694,2839.589s-5.842,27.874-7.744,28.492c-2.725.891-9.284-.042-9.284-.042s-16.735-2.264-29.718-2.913c-.078-.005-.162-.011-.241-.011-2.08-.1-4.06-.162-5.858-.162-.608,0-1.242.005-1.891.021-.435.005-.875.021-1.325.031-.9.026-1.823.068-2.766.11s-1.9.1-2.871.163c-.12.01-.241.016-.367.021-12.391.812-26.6,2.735-26.6,2.735s-6.555.933-9.279.042c-1.9-.618-7.749-28.492-7.749-28.492a7.488,7.488,0,0,1,2.049-2.017c1.87,8.168,4.532,18.841,5.7,19.223,2.724.885,9.279-.047,9.279-.047s3.667-1,8.907-2.185a37.033,37.033,0,0,1-7.985-13.7,13.005,13.005,0,0,1,4.254-2.525,14.224,14.224,0,0,1,1.373-.424c6.324-1.656,12.092,1.153,16.153,4.218.372.278.723.561,1.064.838.031.031.068.052.1.084.267.22.529.445.775.665a17.326,17.326,0,0,0,4.045,2.651c.21.094.419.188.634.277a16.767,16.767,0,0,0,6.5,1.321,16.952,16.952,0,0,0,11.181-4.249c3.432-3.018,8.739-6.5,14.812-6.287a15.147,15.147,0,0,1,4.663.906,13.007,13.007,0,0,1,4.825,3.065,36.994,36.994,0,0,1-7.943,13.3c4.9,1.126,8.283,2.043,8.283,2.043s6.555.933,9.284.047c1.168-.382,3.825-11.05,5.7-19.223A7.867,7.867,0,0,1,1113.694,2839.589Z" transform="translate(-1008 -2837.416)" fill="#371a45"/>
        </g>
        <g id="Group_191" data-name="Group 191" transform="translate(51.95 29.413)" opacity="0.35">
          <path id="Path_300" data-name="Path 300" d="M1955.2,3363.331c.451-.016.891-.026,1.326-.031C1956.091,3363.305,1955.651,3363.321,1955.2,3363.331Z" transform="translate(-1955.2 -3363.3)" fill="#371a45"/>
        </g>
        <g id="Group_192" data-name="Group 192" transform="translate(53.276 29.392)" opacity="0.35">
          <path id="Path_301" data-name="Path 301" d="M1988.249,3363.057c-2.08-.1-4.066-.157-5.858-.157-.608,0-1.242.005-1.891.021.65-.016,1.284-.021,1.891-.021C1984.188,3362.9,1986.169,3362.958,1988.249,3363.057Z" transform="translate(-1980.5 -3362.9)" fill="#371a45"/>
        </g>
        <g id="Group_193" data-name="Group 193" transform="translate(1.472)">
          <path id="Path_302" data-name="Path 302" d="M1003.865,2835.676a13.108,13.108,0,0,1-3.778-.424c-.692-.226-1.64-.535-5.145-15.084-1.682-6.979-3.149-13.968-3.165-14.036a.852.852,0,0,1,.131-.655,8.044,8.044,0,0,1,7.487-3.51c3.505.346,6.607,2.761,8.682,6.691a14.034,14.034,0,0,1,6.434-4.747c5.156-1.865,10.8-.99,16.336,2.531a.847.847,0,1,1-.906,1.43c-5.145-3.274-10.143-4.071-14.848-2.368a12.59,12.59,0,0,0-6.434,5.281.846.846,0,0,1-1.493-.115c-1.787-4.139-4.679-6.7-7.932-7.021a6.349,6.349,0,0,0-5.716,2.5c2.635,12.553,6.01,26.061,7.215,27.528,2.148.624,7.047.131,8.781-.115.236-.032,23.011-3.1,35.942-3.1s35.706,3.065,35.932,3.1c1.745.246,6.638.739,8.786.115,1.205-1.467,4.579-14.974,7.22-27.528a6.349,6.349,0,0,0-5.716-2.5c-3.254.325-6.146,2.881-7.932,7.021a.851.851,0,0,1-.713.508.842.842,0,0,1-.781-.393,12.59,12.59,0,0,0-6.434-5.281c-4.747-1.718-9.787-.9-14.979,2.447a.845.845,0,1,1-.917-1.42c5.575-3.594,11.27-4.5,16.473-2.62a14.007,14.007,0,0,1,6.434,4.747c2.07-3.93,5.177-6.345,8.682-6.691a8.054,8.054,0,0,1,7.487,3.51.852.852,0,0,1,.131.655c-.016.068-1.483,7.063-3.165,14.036-3.505,14.55-4.453,14.859-5.145,15.084-2.882.938-9.389.026-9.661-.011-.22-.031-22.886-3.081-35.7-3.081s-35.481,3.049-35.706,3.081A47.31,47.31,0,0,1,1003.865,2835.676Z" transform="translate(-991.759 -2801.925)" fill="#371a45"/>
        </g>
        <g id="Group_202" data-name="Group 202" transform="translate(94.37 0.995)">
          <g id="Group_194" data-name="Group 194" transform="translate(0.848 0.851)">
            <path id="Path_303" data-name="Path 303" d="M2784.384,2867.845h1.692a5.038,5.038,0,0,0,4.6-2.981c2.536-5.674,7.157-18.149,2.829-25.762-.125-.22-.262-.435-.4-.639,0,0-4.155-3.778-7.141,1.566C2783.173,2845.022,2777.316,2866.383,2784.384,2867.845Z" transform="translate(-2781.027 -2837.166)" fill="#afafb2"/>
          </g>
          <g id="Group_195" data-name="Group 195" transform="translate(4.253 0.846)" opacity="0.7">
            <path id="Path_304" data-name="Path 304" d="M2846,2843.492c.073-.121.152-.23.22-.335,3.673-5.349,8.781-1.566,8.781-1.566.173.2.34.419.5.639a11.131,11.131,0,0,1,1.242,2.321,14.126,14.126,0,0,0-1.666-5.549c-.126-.22-.262-.435-.4-.639,0,0-4.155-3.778-7.141,1.567A25.28,25.28,0,0,0,2846,2843.492Z" transform="translate(-2846 -2837.066)" fill="#fff"/>
          </g>
          <g id="Group_196" data-name="Group 196" transform="translate(3.734 5.535)">
            <path id="Path_305" data-name="Path 305" d="M2847.333,2930a1.371,1.371,0,0,1-.141-.01l-10.39-1.734a.847.847,0,1,1,.278-1.671l10.39,1.734a.846.846,0,0,1-.136,1.682Z" transform="translate(-2836.095 -2926.57)" fill="#371a45"/>
          </g>
          <g id="Group_197" data-name="Group 197" transform="translate(1.904 11.251)">
            <path id="Path_306" data-name="Path 306" d="M2814.174,3038.983a.867.867,0,0,1-.115-.005l-12.15-1.635a.848.848,0,1,1,.225-1.682l12.15,1.635a.847.847,0,0,1-.11,1.687Z" transform="translate(-2801.174 -3035.653)" fill="#371a45"/>
          </g>
          <g id="Group_198" data-name="Group 198" transform="translate(0.652 16.875)">
            <path id="Path_307" data-name="Path 307" d="M2790.459,3146.2a.717.717,0,0,1-.1-.005l-12.333-1.509a.847.847,0,1,1,.2-1.682l12.333,1.509a.847.847,0,0,1-.1,1.687Z" transform="translate(-2777.275 -3142.994)" fill="#371a45"/>
          </g>
          <g id="Group_199" data-name="Group 199" transform="translate(0 23.383)">
            <path id="Path_308" data-name="Path 308" d="M2776.709,3269.9a.384.384,0,0,1-.078-.005l-11.029-1a.844.844,0,1,1,.152-1.682l11.029,1a.845.845,0,0,1-.073,1.687Z" transform="translate(-2764.833 -3267.218)" fill="#371a45"/>
          </g>
          <g id="Group_200" data-name="Group 200" transform="translate(0.846 18.725)" opacity="0.35">
            <path id="Path_309" data-name="Path 309" d="M2784.338,3191.105h1.692a5.038,5.038,0,0,0,4.6-2.981c.655-1.472,1.451-3.4,2.2-5.575a6.2,6.2,0,0,1-5.35,2.756h-2.017c-2.871-.5-3.956-3.317-4-7.005C2780.492,3184.53,2780.76,3190.367,2784.338,3191.105Z" transform="translate(-2780.979 -3178.3)" fill="#371a45"/>
          </g>
          <g id="Group_201" data-name="Group 201" transform="translate(0.004)">
            <path id="Path_310" data-name="Path 310" d="M2770.8,2853.292h-1.692a.962.962,0,0,1-.173-.016,4.348,4.348,0,0,1-3.117-2.672c-2.9-6.34,1.839-22.283,4.129-26.385a5.746,5.746,0,0,1,3.966-3.243,5.919,5.919,0,0,1,4.485,1.462.806.806,0,0,1,.126.141,8.146,8.146,0,0,1,.445.708c4.412,7.76.147,19.946-2.793,26.522A5.889,5.889,0,0,1,2770.8,2853.292Zm-1.6-1.692h1.6a4.2,4.2,0,0,0,3.83-2.478c2.258-5.062,7.063-17.62,2.866-25-.094-.168-.2-.33-.3-.487a3.46,3.46,0,0,0-5.769,1.409c-2.389,4.281-6.523,19.48-4.066,24.856A2.705,2.705,0,0,0,2769.2,2851.6Z" transform="translate(-2764.907 -2820.918)" fill="#371a45"/>
          </g>
        </g>
        <g id="Group_211" data-name="Group 211" transform="translate(0 0.995)">
          <g id="Group_203" data-name="Group 203" transform="translate(0.86 0.851)">
            <path id="Path_311" data-name="Path 311" d="M990.983,2867.845H989.29a5.038,5.038,0,0,1-4.6-2.981c-2.536-5.674-7.157-18.149-2.829-25.762.126-.22.262-.435.4-.639,0,0,4.155-3.778,7.141,1.566C992.2,2845.022,998.05,2866.383,990.983,2867.845Z" transform="translate(-980.084 -2837.166)" fill="#afafb2"/>
          </g>
          <g id="Group_204" data-name="Group 204" transform="translate(0.971 0.846)" opacity="0.7">
            <path id="Path_312" data-name="Path 312" d="M992.941,2843.492c-.073-.121-.152-.23-.22-.335-3.673-5.349-8.781-1.566-8.781-1.566-.173.2-.341.419-.5.639a11.142,11.142,0,0,0-1.242,2.321,14.124,14.124,0,0,1,1.666-5.549c.126-.22.262-.435.4-.639,0,0,4.155-3.778,7.141,1.567A25.275,25.275,0,0,1,992.941,2843.492Z" transform="translate(-982.2 -2837.066)" fill="#fff"/>
          </g>
          <g id="Group_205" data-name="Group 205" transform="translate(0.147 5.535)">
            <path id="Path_313" data-name="Path 313" d="M967.315,2930a.846.846,0,0,1-.136-1.682l10.39-1.734a.847.847,0,1,1,.278,1.671l-10.39,1.734A.657.657,0,0,1,967.315,2930Z" transform="translate(-966.47 -2926.57)" fill="#371a45"/>
          </g>
          <g id="Group_206" data-name="Group 206" transform="translate(0.214 11.251)">
            <path id="Path_314" data-name="Path 314" d="M968.6,3038.981a.847.847,0,0,1-.11-1.687l12.15-1.635a.848.848,0,1,1,.225,1.682l-12.155,1.629A.764.764,0,0,1,968.6,3038.981Z" transform="translate(-967.751 -3035.652)" fill="#371a45"/>
          </g>
          <g id="Group_207" data-name="Group 207" transform="translate(1.284 16.874)">
            <path id="Path_315" data-name="Path 315" d="M989.02,3146.178a.847.847,0,0,1-.1-1.687l12.333-1.509a.847.847,0,1,1,.2,1.682l-12.334,1.509C989.088,3146.173,989.057,3146.178,989.02,3146.178Z" transform="translate(-988.175 -3142.975)" fill="#371a45"/>
          </g>
          <g id="Group_208" data-name="Group 208" transform="translate(3.241 23.384)">
            <path id="Path_316" data-name="Path 316" d="M1026.38,3269.919a.845.845,0,0,1-.079-1.687l11.029-1a.844.844,0,0,1,.152,1.682l-11.029,1A.352.352,0,0,1,1026.38,3269.919Z" transform="translate(-1025.533 -3267.233)" fill="#371a45"/>
          </g>
          <g id="Group_209" data-name="Group 209" transform="translate(3.271 18.724)" opacity="0.35">
            <path id="Path_317" data-name="Path 317" d="M1034.588,3191.105H1032.9a5.038,5.038,0,0,1-4.6-2.981c-.655-1.472-1.451-3.4-2.2-5.575a6.2,6.2,0,0,0,5.349,2.756h2.017c2.871-.5,3.956-3.317,4-7.005C1038.433,3184.53,1038.166,3190.367,1034.588,3191.105Z" transform="translate(-1026.1 -3178.3)" fill="#371a45"/>
          </g>
          <g id="Group_210" data-name="Group 210">
            <path id="Path_318" data-name="Path 318" d="M975.428,2853.294h-1.692a5.9,5.9,0,0,1-5.376-3.484c-2.934-6.575-7.2-18.762-2.793-26.522.136-.241.288-.482.445-.707a.807.807,0,0,1,.126-.142,5.941,5.941,0,0,1,4.485-1.462,5.742,5.742,0,0,1,3.966,3.243c2.29,4.1,7.026,20.046,4.129,26.385a4.348,4.348,0,0,1-3.117,2.672A.963.963,0,0,1,975.428,2853.294Zm-8.084-29.655c-.1.157-.2.32-.3.487-4.2,7.377.608,19.941,2.866,25a4.187,4.187,0,0,0,3.83,2.478h1.6a2.742,2.742,0,0,0,1.844-1.7c2.457-5.376-1.671-20.57-4.066-24.856a3.46,3.46,0,0,0-5.774-1.4Z" transform="translate(-963.669 -2820.921)" fill="#371a45"/>
          </g>
        </g>
        <g id="Group_212" data-name="Group 212" transform="translate(24.941 1.801)">
          <path id="Path_319" data-name="Path 319" d="M1445.631,2866.227a.594.594,0,0,1-.293-.073.638.638,0,0,1-.267-.859c2.992-5.711,3.034-12.135.131-19.087a35.55,35.55,0,0,0-5.344-8.854.635.635,0,1,1,.953-.838,36.314,36.314,0,0,1,5.548,9.169c3.028,7.225,2.971,14.215-.162,20.2A.628.628,0,0,1,1445.631,2866.227Z" transform="translate(-1439.7 -2836.299)" fill="#371a45"/>
        </g>
        <g id="Group_213" data-name="Group 213" transform="translate(76.797 1.806)">
          <path id="Path_320" data-name="Path 320" d="M2432.389,2866.322a.629.629,0,0,1-.561-.341c-3.133-5.989-3.191-12.973-.163-20.2a36.077,36.077,0,0,1,5.549-9.169.635.635,0,0,1,.954.838,35.649,35.649,0,0,0-5.344,8.854c-2.9,6.953-2.855,13.376.131,19.087a.64.64,0,0,1-.267.859A.687.687,0,0,1,2432.389,2866.322Z" transform="translate(-2429.436 -2836.4)" fill="#371a45"/>
        </g>
      </g>
      <g id="Group_215" data-name="Group 215" transform="translate(17.454 80.081)">
        <path id="Path_321" data-name="Path 321" d="M1372.231,2096.932H1296.8c0-7.346,3.317-13.623,8.058-18.694a46.191,46.191,0,0,1,8.294-6.911c1.336-.885,2.7-1.7,4.061-2.442,6.707-3.657,13.423-5.585,17.306-5.585s10.6,1.928,17.3,5.585a53.946,53.946,0,0,1,7.571,4.978,43.117,43.117,0,0,1,4.815,4.411C1368.936,2083.335,1372.231,2089.6,1372.231,2096.932Z" transform="translate(-1296.8 -2063.3)" fill="#fff"/>
      </g>
      <g id="Group_216" data-name="Group 216" transform="translate(16.605 79.237)">
        <path id="Path_322" data-name="Path 322" d="M1356.88,2082.524h-75.431a.849.849,0,0,1-.849-.849c0-12.087,8.456-20.544,15.545-25.505,8.414-5.889,17.95-8.97,23.017-8.97s14.6,3.081,23.017,8.97c7.094,4.962,15.545,13.418,15.545,25.505A.844.844,0,0,1,1356.88,2082.524Zm-74.572-1.692h73.713c-.388-10.914-8.215-18.657-14.812-23.273-8.043-5.627-17.364-8.666-22.047-8.666s-14,3.039-22.047,8.666C1290.523,2062.169,1282.7,2069.918,1282.308,2080.832Z" transform="translate(-1280.6 -2047.2)" fill="#371a45"/>
      </g>
      <g id="Group_217" data-name="Group 217" transform="translate(88.505 113.978)">
        <path id="Path_323" data-name="Path 323" d="M2653.512,2711.885a.261.261,0,0,1-.063-.005.62.62,0,0,1-.555-.639c0-.11,0-.22.01-.33v-.031a.619.619,0,0,1,1.231-.073,1.9,1.9,0,0,1,.016.241,2.265,2.265,0,0,1-.026.32A.623.623,0,0,1,2653.512,2711.885Z" transform="translate(-2652.894 -2710.275)" fill="#371a45"/>
      </g>
      <g id="Group_218" data-name="Group 218" transform="translate(21.467 100.383)">
        <path id="Path_324" data-name="Path 324" d="M1441.554,2457.271v.084c-.094,1.457-2.724,2.793-7.089,3.867-6.23-1.535-16-2.52-26.988-2.52s-20.764.99-26.993,2.52c-4.359-1.069-6.989-2.41-7.084-3.867v-.084c0-3.573,15.257-6.471,34.082-6.471S1441.554,2453.7,1441.554,2457.271Z" transform="translate(-1373.4 -2450.8)" fill="#fff" stroke="#371a45" stroke-linecap="round" stroke-linejoin="round"/>
      </g>
      <g id="Group_219" data-name="Group 219" transform="translate(21.467 100.383)">
        <path id="Path_325" data-name="Path 325" d="M1441.554,2457.271v.084c-.042.618-.54,1.216-1.436,1.781-.241.152-.513.3-.807.45a24.353,24.353,0,0,1-4.841,1.635c-6.23-1.535-16-2.52-26.988-2.52s-20.759.985-26.993,2.52a24.354,24.354,0,0,1-4.841-1.635,8.716,8.716,0,0,1-.807-.45c-.9-.566-1.394-1.163-1.436-1.781a.478.478,0,0,1-.005-.084c0-3.573,15.257-6.471,34.082-6.471S1441.554,2453.7,1441.554,2457.271Z" transform="translate(-1373.4 -2450.8)" fill="#fff"/>
      </g>
      <g id="Group_220" data-name="Group 220" transform="translate(23.71 105.015)">
        <path id="Path_326" data-name="Path 326" d="M1479.864,2543.354a24.367,24.367,0,0,1-4.841,1.635c-6.229-1.535-16-2.52-26.988-2.52s-20.759.985-26.993,2.52a24.366,24.366,0,0,1-4.841-1.635c4.9-2.431,17.311-4.155,31.834-4.155S1474.96,2540.923,1479.864,2543.354Z" transform="translate(-1416.2 -2539.2)" fill="#371a45"/>
      </g>
      <g id="Group_221" data-name="Group 221" transform="translate(20.619 99.535)">
        <path id="Path_327" data-name="Path 327" d="M1365.132,2446.714a.832.832,0,0,1-.2-.026c-5.077-1.247-7.6-2.761-7.728-4.632a1.179,1.179,0,0,1-.005-.141c0-5.365,20.889-7.314,34.926-7.314s34.926,1.949,34.926,7.314c0,.052,0,.1-.005.157-.12,1.849-2.651,3.364-7.728,4.611a.873.873,0,0,1-.4,0c-6.45-1.587-16.211-2.494-26.789-2.494s-20.339.912-26.789,2.494A.69.69,0,0,1,1365.132,2446.714Zm26.993-10.421a134.727,134.727,0,0,0-23.939,1.881c-7.351,1.394-9.295,3.06-9.295,3.741v.026c.01.157.272,1.556,6.24,3.049,6.575-1.587,16.394-2.494,26.993-2.494s20.413.906,26.988,2.494c5.968-1.493,6.235-2.892,6.245-3.049v-.026c0-.686-1.944-2.347-9.295-3.741A135.212,135.212,0,0,0,1392.126,2436.292Z" transform="translate(-1357.2 -2434.6)" fill="#371a45"/>
      </g>
      <g id="Group_222" data-name="Group 222" transform="translate(28.83 108.284)">
        <path id="Path_328" data-name="Path 328" d="M1567.271,2604.031a.089.089,0,0,1,0,.173c-6.24,1.483-15.854,2.437-26.632,2.437s-20.4-.954-26.647-2.437a.086.086,0,0,1,0-.167c6.245-1.483,15.86-2.437,26.647-2.437S1561.031,2602.548,1567.271,2604.031Z" transform="translate(-1513.925 -2601.6)" fill="#371a45"/>
      </g>
      <g id="Group_223" data-name="Group 223" transform="translate(27.98 107.43)">
        <path id="Path_329" data-name="Path 329" d="M1525.265,2592.038c-10.484,0-20.271-.9-26.847-2.463a.931.931,0,0,1,0-1.813c6.575-1.561,16.357-2.463,26.847-2.463s20.255.9,26.826,2.458h0a.938.938,0,0,1,0,1.823C1545.52,2591.142,1535.743,2592.038,1525.265,2592.038Zm-22.812-3.369a156.006,156.006,0,0,0,45.619,0,155.984,155.984,0,0,0-45.619,0Z" transform="translate(-1497.7 -2585.3)" fill="#371a45"/>
      </g>
      <g id="Group_225" data-name="Group 225" transform="translate(72.705 77.386)">
        <g id="Group_224" data-name="Group 224">
          <path id="Path_330" data-name="Path 330" d="M2351.911,2057.759h0c-.618-.314-.77-1.31-.32-2.227q10.445-21.338,20.884-42.68a1.981,1.981,0,0,1,2.7-.749h0a1.979,1.979,0,0,1,.98,2.625l-22.257,41.983C2353.42,2057.613,2352.529,2058.074,2351.911,2057.759Z" transform="translate(-2351.331 -2011.86)" fill="#f9b653"/>
        </g>
      </g>
      <g id="Group_227" data-name="Group 227" transform="translate(72.705 77.781)" opacity="0.3">
        <g id="Group_226" data-name="Group 226">
          <path id="Path_331" data-name="Path 331" d="M2376.348,2021.071a1.7,1.7,0,0,1-.194.8q-11.128,20.992-22.251,41.983c-.482.9-1.373,1.368-1.991,1.053a1.667,1.667,0,0,1-.319-2.227q4.44-9.069,8.875-18.144a.942.942,0,0,0,.152.1c.624.314,1.514-.147,1.991-1.053q6.405-12.088,12.815-24.18A2.053,2.053,0,0,1,2376.348,2021.071Z" transform="translate(-2351.331 -2019.4)" fill="#371a45"/>
        </g>
      </g>
      <g id="Group_229" data-name="Group 229" transform="translate(72.085 76.764)">
        <g id="Group_228" data-name="Group 228">
          <path id="Path_332" data-name="Path 332" d="M2341.122,2047.222a1.526,1.526,0,0,1-.708-.168h0a2.236,2.236,0,0,1-.592-3.049l20.884-42.68a2.376,2.376,0,0,1,1.4-1.2,2.812,2.812,0,0,1,3.526,1.8,2.377,2.377,0,0,1-.147,1.839l-22.257,41.983A2.531,2.531,0,0,1,2341.122,2047.222Zm-.147-1.263c.241.121.812-.126,1.168-.791l22.257-41.983a1.156,1.156,0,0,0,.063-.891,1.542,1.542,0,0,0-.781-.9,1.563,1.563,0,0,0-1.184-.1,1.165,1.165,0,0,0-.681.571l-20.884,42.68c-.335.681-.2,1.294.042,1.415Z" transform="translate(-2339.497 -1999.989)" fill="#371a45"/>
        </g>
      </g>
      <g id="Group_231" data-name="Group 231" transform="translate(72.533 80.48)">
        <g id="Group_230" data-name="Group 230">
          <path id="Path_333" data-name="Path 333" d="M2348.457,2112.719h0c-.561-.408-.55-1.415.042-2.253q13.707-19.4,27.418-38.8a1.976,1.976,0,0,1,2.782-.309h0a1.977,1.977,0,0,1,.55,2.745q-14.327,18.948-28.659,37.9C2349.971,2112.814,2349.018,2113.128,2348.457,2112.719Z" transform="translate(-2348.046 -2070.926)" fill="#f9b653"/>
        </g>
      </g>
      <g id="Group_233" data-name="Group 233" transform="translate(72.538 81.081)" opacity="0.3">
        <g id="Group_232" data-name="Group 232">
          <path id="Path_334" data-name="Path 334" d="M2379.69,2083.925a1.718,1.718,0,0,1-.341,1.048q-14.327,18.948-28.659,37.9c-.618.817-1.572,1.132-2.133.723a1.662,1.662,0,0,1,.042-2.248q4.7-6.641,9.394-13.287a.828.828,0,0,0,.262.293c.566.4,1.52.079,2.127-.744q9.313-12.606,18.631-25.207A2.123,2.123,0,0,1,2379.69,2083.925Z" transform="translate(-2348.146 -2082.4)" fill="#371a45"/>
        </g>
      </g>
      <g id="Group_235" data-name="Group 235" transform="translate(71.912 79.864)">
        <g id="Group_234" data-name="Group 234">
          <path id="Path_335" data-name="Path 335" d="M2337.8,2102.365a1.571,1.571,0,0,1-.948-.3h0a2.24,2.24,0,0,1-.1-3.107l27.418-38.8a2.383,2.383,0,0,1,1.572-.964,2.816,2.816,0,0,1,3.2,2.337,2.388,2.388,0,0,1-.44,1.792l-28.659,37.9A2.653,2.653,0,0,1,2337.8,2102.365Zm-.22-1.294c.246.178.859-.042,1.278-.6l28.659-37.9a1.154,1.154,0,0,0,.2-.87,1.575,1.575,0,0,0-1.776-1.3,1.158,1.158,0,0,0-.765.456l-27.418,38.8c-.435.623-.4,1.247-.183,1.4Z" transform="translate(-2336.191 -2059.158)" fill="#371a45"/>
        </g>
      </g>
      <g id="Group_236" data-name="Group 236" transform="translate(21.467 106.938)">
        <path id="Path_336" data-name="Path 336" d="M1441.554,2575.9v6.963c0,.23,0,.466-.005.7,0,.126-.005.252-.01.377a34.078,34.078,0,0,1-68.123,0c-.005-.125-.005-.251-.01-.377-.005-.23-.005-.466-.005-.7V2575.9c.094,1.457,2.724,2.792,7.084,3.867,6.23,1.535,16.006,2.52,26.993,2.52s20.758-.99,26.988-2.52C1438.824,2578.692,1441.454,2577.356,1441.554,2575.9Z" transform="translate(-1373.4 -2575.9)" fill="#f4017a"/>
      </g>
      <g id="Group_237" data-name="Group 237" transform="translate(21.473 107.399)" opacity="0.4">
        <path id="Path_337" data-name="Path 337" d="M1441.649,2584.7v2.976c-.094,1.373-2.724,2.636-7.083,3.647-6.23,1.446-16,2.378-26.988,2.378s-20.759-.933-26.993-2.378c-4.359-1.011-6.989-2.274-7.084-3.647V2584.7c.094,1.373,2.724,2.635,7.084,3.647,6.235,1.446,16.006,2.379,26.993,2.379s20.758-.933,26.988-2.379C1438.919,2587.335,1441.549,2586.073,1441.649,2584.7Z" transform="translate(-1373.5 -2584.7)" fill="#fff"/>
      </g>
      <g id="Group_238" data-name="Group 238" transform="translate(22.238 110.749)" opacity="0.3">
        <path id="Path_338" data-name="Path 338" d="M1454.939,2650.519v4.029c0,.215,0,.429-.005.639,0,.115-.005.23-.01.346a29.471,29.471,0,0,1-2.159,10.159c-4.789,11.8-16.976,20.187-31.248,20.187-14.162,0-26.26-8.257-31.127-19.909a29.53,29.53,0,0,1-2.274-10.437c-.005-.115-.005-.23-.01-.346-.005-.21-.005-.425-.005-.639v-4.59c.094-.089.194-.168.293-.246a4.825,4.825,0,0,1,2.588-1.042c3.468-.288,5.858,2.855,6.261,7.718.278,3.343-.456,6.623-2.07,8.441a34.839,34.839,0,0,0,52.425.309c-1.8-1.739-2.635-5.2-2.342-8.724.4-4.862,2.793-8.006,6.261-7.718a5,5,0,0,1,3.06,1.451h0A4.829,4.829,0,0,1,1454.939,2650.519Z" transform="translate(-1388.1 -2648.651)" fill="#371a45"/>
      </g>
      <g id="Group_239" data-name="Group 239" transform="translate(88.621 110.155)" opacity="0.3">
        <path id="Path_339" data-name="Path 339" d="M2657.356,2639.1v2.368c-.115-.131-.236-.257-.356-.372h0c.073-.487.142-.974.194-1.472A1.371,1.371,0,0,0,2657.356,2639.1Z" transform="translate(-2656.9 -2639.006)" fill="#343c47"/>
        <path id="Path_340" data-name="Path 340" d="M2655.556,2639.862a.1.1,0,0,1-.073-.031c-.115-.131-.236-.257-.351-.367a.1.1,0,0,1-.031-.073c.084-.534.142-1.016.194-1.483a.075.075,0,0,1,.01-.037,1.105,1.105,0,0,0,.152-.477.107.107,0,0,1,.1-.094.1.1,0,0,1,.094.1v2.368a.1.1,0,0,1-.063.094C2655.582,2639.857,2655.566,2639.862,2655.556,2639.862Zm-.251-.508c.052.047.1.1.152.152v-1.278C2655.415,2638.589,2655.362,2638.956,2655.3,2639.354Z" transform="translate(-2655.1 -2637.3)" fill="#371a45"/>
      </g>
      <g id="Group_240" data-name="Group 240" transform="translate(20.854 106.319)">
        <path id="Path_341" data-name="Path 341" d="M1396.39,2606.371a34.7,34.7,0,0,1-34.674-33.61c-.005-.11-.005-.231-.01-.346v-.031c-.005-.236-.005-.471-.005-.707v-6.963a.618.618,0,0,1,.6-.618.611.611,0,0,1,.634.576c.058.828,1.823,2.127,6.617,3.306,6.465,1.593,16.253,2.5,26.847,2.5s20.376-.912,26.841-2.5c4.794-1.179,6.565-2.478,6.617-3.306a.616.616,0,0,1,1.231.042v6.963c0,.236,0,.471-.005.713,0,.131-.005.257-.01.388a34.678,34.678,0,0,1-34.679,33.595Zm-33.459-39.688v4.993c0,.23,0,.456.005.686v.037c0,.11.005.22.01.33a33.459,33.459,0,0,0,66.886.005c.005-.126.005-.246.01-.367.005-.23.005-.456.005-.687v-4.993a17.909,17.909,0,0,1-6.324,2.494c-6.554,1.614-16.447,2.536-27.135,2.536s-20.58-.927-27.14-2.536A18.062,18.062,0,0,1,1362.931,2566.682Z" transform="translate(-1361.7 -2564.094)" fill="#371a45"/>
      </g>
      <g id="Group_241" data-name="Group 241" transform="translate(20.624 106.094)">
        <path id="Path_342" data-name="Path 342" d="M1392.221,2602.523a34.921,34.921,0,0,1-34.9-33.831c-.005-.11-.005-.231-.01-.351v-.032c-.005-.236-.005-.477-.005-.712v-6.963a.841.841,0,0,1,.817-.844.857.857,0,0,1,.875.791c.01.157.283,1.587,6.439,3.1,6.45,1.587,16.216,2.494,26.794,2.494s20.339-.912,26.789-2.494c6.161-1.514,6.434-2.939,6.444-3.1a.847.847,0,0,1,1.692.052v6.963c0,.236,0,.477-.005.712,0,.131-.005.262-.01.393a34.921,34.921,0,0,1-34.915,33.82Zm-33.234-39.484v4.553c0,.225,0,.451.005.681v.037c0,.11.005.22.01.325a33.231,33.231,0,0,0,66.43.005c.005-.125.005-.246.01-.367.005-.23.005-.456.005-.681v-4.558a19.944,19.944,0,0,1-6.041,2.279c-6.575,1.619-16.483,2.546-27.193,2.546s-20.617-.927-27.2-2.546A19.9,19.9,0,0,1,1358.987,2563.039Z" transform="translate(-1357.3 -2559.79)" fill="#371a45"/>
      </g>
      <g id="Group_242" data-name="Group 242" transform="translate(15.934 107.551)">
        <path id="Path_343" data-name="Path 343" d="M1283.074,2598.381c.445,5.323-1.457,10.5-5.255,10.819s-7.241-3.741-7.681-9.064,2.279-9.892,6.078-10.206S1282.628,2593.058,1283.074,2598.381Z" transform="translate(-1269.97 -2589.789)" fill="#fff"/>
        <path id="Path_344" data-name="Path 344" d="M1275.229,2607.16c-3.688,0-6.958-4.008-7.388-9.19a11.976,11.976,0,0,1,1.462-7.052,6.19,6.19,0,0,1,4.721-3.285c3.793-.314,6.528,3.044,6.989,8.561a15.3,15.3,0,0,1-1.048,7.346c-.969,2.174-2.5,3.453-4.317,3.6C1275.512,2607.155,1275.37,2607.16,1275.229,2607.16Zm-.718-19.307c-.152,0-.3.005-.461.021a5.95,5.95,0,0,0-4.537,3.17,11.672,11.672,0,0,0-1.43,6.911c.435,5.25,3.83,9.263,7.555,8.954,2.206-.183,3.458-1.986,4.118-3.463a15.015,15.015,0,0,0,1.027-7.23C1280.348,2591.07,1277.911,2587.853,1274.511,2587.853Z" transform="translate(-1267.794 -2587.613)" fill="#371a45"/>
      </g>
      <g id="Group_243" data-name="Group 243" transform="translate(16.055 107.667)" opacity="0.35">
        <path id="Path_345" data-name="Path 345" d="M1283.074,2601.31c-.445-5.318-3.06-8.76-6.858-8.446-3.154.262-5.564,3.458-6.041,7.581-.016-.131-.026-.262-.037-.393-.445-5.323,2.279-9.892,6.078-10.212s6.418,3.128,6.858,8.451A18.155,18.155,0,0,1,1283.074,2601.31Z" transform="translate(-1270.09 -2589.821)" fill="#fff"/>
      </g>
      <g id="Group_244" data-name="Group 244" transform="translate(16.056 113.712)" opacity="0.3">
        <path id="Path_346" data-name="Path 346" d="M1277.851,2718.451c-3.8.314-7.241-3.741-7.681-9.064a13.042,13.042,0,0,1,.32-4.186c1.027,4.291,4.06,7.33,7.361,7.052,2.672-.225,4.406-2.855,5.046-6.245.094.519.162,1.058.21,1.624C1283.547,2712.949,1281.65,2718.131,1277.851,2718.451Z" transform="translate(-1270.125 -2705.2)" fill="#371a45"/>
      </g>
      <g id="Group_245" data-name="Group 245" transform="translate(15.208 106.831)">
        <path id="Path_347" data-name="Path 347" d="M1262.093,2594.85c-4.066,0-7.655-4.3-8.116-9.855a12.661,12.661,0,0,1,1.561-7.482,6.873,6.873,0,0,1,5.287-3.636c4.223-.351,7.277,3.269,7.77,9.221a16.045,16.045,0,0,1-1.105,7.7c-1.085,2.426-2.829,3.856-4.92,4.029C1262.412,2594.84,1262.25,2594.85,1262.093,2594.85Zm-.739-19.307c-.126,0-.257.005-.388.016a5.249,5.249,0,0,0-3.972,2.819,10.973,10.973,0,0,0-1.331,6.476c.388,4.679,3.233,8.3,6.418,8.3.115,0,.231-.005.351-.016,1.855-.152,2.934-1.734,3.516-3.034a14.545,14.545,0,0,0,.964-6.874C1266.52,2578.508,1264.356,2575.543,1261.354,2575.543Z" transform="translate(-1253.926 -2573.853)" fill="#371a45"/>
      </g>
      <g id="Group_246" data-name="Group 246" transform="translate(81.665 107.551)">
        <path id="Path_348" data-name="Path 348" d="M2524.647,2598.381c-.445,5.323,1.457,10.5,5.255,10.819s7.241-3.741,7.681-9.064-2.279-9.892-6.078-10.206S2525.092,2593.058,2524.647,2598.381Z" transform="translate(-2524.465 -2589.789)" fill="#fff"/>
        <path id="Path_349" data-name="Path 349" d="M2528.186,2607.16q-.212,0-.424-.016c-4.05-.335-5.784-5.894-5.365-10.95h0c.461-5.517,3.2-8.875,6.99-8.561,3.856.32,6.633,4.957,6.188,10.337C2535.138,2603.152,2531.874,2607.16,2528.186,2607.16Zm-5.548-10.95c-.414,4.941,1.252,10.369,5.145,10.693,3.73.309,7.115-3.7,7.555-8.954s-2.242-9.771-5.968-10.081c-3.641-.3-6.287,2.971-6.732,8.341Z" transform="translate(-2522.335 -2587.613)" fill="#371a45"/>
      </g>
      <g id="Group_247" data-name="Group 247" transform="translate(81.783 107.667)" opacity="0.35">
        <path id="Path_350" data-name="Path 350" d="M2524.663,2601.3c.445-5.318,3.06-8.76,6.858-8.446,3.154.262,5.564,3.458,6.041,7.582.016-.131.026-.262.037-.393.445-5.323-2.279-9.892-6.078-10.211s-6.418,3.128-6.858,8.451A18.1,18.1,0,0,0,2524.663,2601.3Z" transform="translate(-2524.6 -2589.81)" fill="#fff"/>
      </g>
      <g id="Group_248" data-name="Group 248" transform="translate(81.782 113.712)" opacity="0.3">
        <path id="Path_351" data-name="Path 351" d="M2529.9,2718.451c3.8.314,7.241-3.741,7.681-9.064a13.038,13.038,0,0,0-.32-4.186c-1.027,4.291-4.061,7.33-7.361,7.052-2.672-.225-4.406-2.855-5.045-6.245-.094.519-.163,1.058-.21,1.624C2524.2,2712.949,2526.1,2718.131,2529.9,2718.451Z" transform="translate(-2524.583 -2705.2)" fill="#371a45"/>
      </g>
      <g id="Group_249" data-name="Group 249" transform="translate(80.94 106.825)">
        <path id="Path_352" data-name="Path 352" d="M2515.067,2594.743c-.157,0-.32-.005-.482-.021-4.516-.377-6.476-6.324-6.025-11.736h0c.5-5.957,3.552-9.578,7.77-9.221,4.26.356,7.33,5.344,6.853,11.123C2522.722,2590.447,2519.133,2594.743,2515.067,2594.743Zm-4.82-11.616c-.388,4.652,1.184,9.63,4.48,9.908,3.327.278,6.366-3.442,6.769-8.289s-1.975-9.017-5.3-9.295c-3.217-.267-5.538,2.745-5.947,7.676Z" transform="translate(-2508.497 -2573.74)" fill="#371a45"/>
      </g>
      <g id="Group_267" data-name="Group 267" transform="translate(18.62 28.701)">
        <g id="Group_250" data-name="Group 250" transform="translate(69.748 24.908)">
          <path id="Path_353" data-name="Path 353" d="M2653.9,1581.424h0a.663.663,0,0,1-.624-.7l1.09-19.119a.663.663,0,0,1,.7-.624h0a6.974,6.974,0,0,1,6.565,7.361l-.372,6.518A6.974,6.974,0,0,1,2653.9,1581.424Z" transform="translate(-2653.121 -1560.826)" fill="#fff"/>
          <path id="Path_354" data-name="Path 354" d="M2651.454,1578.821c-.136,0-.272-.005-.409-.01h0a.82.82,0,0,1-.77-.865l1.09-19.119a.816.816,0,0,1,.864-.765,7.132,7.132,0,0,1,6.707,7.519l-.372,6.518A7.133,7.133,0,0,1,2651.454,1578.821Zm-.393-.314a6.835,6.835,0,0,0,7.2-6.423l.372-6.518a6.829,6.829,0,0,0-6.424-7.2.488.488,0,0,0-.372.131.5.5,0,0,0-.173.351l-1.09,19.119a.521.521,0,0,0,.487.54Z" transform="translate(-2650.273 -1558.06)" fill="#371a45"/>
        </g>
        <g id="Group_251" data-name="Group 251" transform="translate(69.906 35.881)" opacity="0.35">
          <path id="Path_355" data-name="Path 355" d="M2661.438,1767.5l-.173,3.06a6.974,6.974,0,0,1-7.361,6.565.663.663,0,0,1-.624-.7l.288-5.082a.677.677,0,0,0,.582.43l.456.026A6.972,6.972,0,0,0,2661.438,1767.5Z" transform="translate(-2653.279 -1767.5)" fill="#371a45"/>
        </g>
        <g id="Group_252" data-name="Group 252" transform="translate(69.051 24.216)">
          <path id="Path_356" data-name="Path 356" d="M2638.838,1567.009c-.152,0-.3-.005-.451-.01h0a1.482,1.482,0,0,1-1.043-.5,1.508,1.508,0,0,1-.382-1.09l1.09-19.119a1.492,1.492,0,0,1,.5-1.043,1.508,1.508,0,0,1,1.09-.383,7.828,7.828,0,0,1,7.361,8.252l-.372,6.518A7.819,7.819,0,0,1,2638.838,1567.009Zm-.173-1.7a6.127,6.127,0,0,0,6.287-5.774l.372-6.518a6.138,6.138,0,0,0-5.59-6.455Z" transform="translate(-2636.96 -1544.86)" fill="#371a45"/>
        </g>
        <g id="Group_253" data-name="Group 253" transform="translate(0.693 21.293)">
          <path id="Path_357" data-name="Path 357" d="M1343.024,1491.99h0a.663.663,0,0,1,.624.7l-1.09,19.119a.663.663,0,0,1-.7.623h0a6.974,6.974,0,0,1-6.565-7.361l.372-6.518A6.974,6.974,0,0,1,1343.024,1491.99Z" transform="translate(-1335.121 -1491.826)" fill="#fff"/>
          <path id="Path_358" data-name="Path 358" d="M1339.039,1509.828h-.047a7.131,7.131,0,0,1-6.712-7.524l.372-6.518a7.132,7.132,0,0,1,7.524-6.706h0a.82.82,0,0,1,.77.865l-1.09,19.119a.789.789,0,0,1-.272.561A.8.8,0,0,1,1339.039,1509.828Zm.723-20.455a6.816,6.816,0,0,0-6.8,6.429l-.372,6.518a6.817,6.817,0,0,0,6.423,7.2.5.5,0,0,0,.372-.131.524.524,0,0,0,.173-.351l1.09-19.119a.51.51,0,0,0-.482-.54C1340.029,1489.379,1339.893,1489.373,1339.762,1489.373Z" transform="translate(-1332.268 -1489.068)" fill="#371a45"/>
        </g>
        <g id="Group_254" data-name="Group 254" transform="translate(0.85 31.795)" opacity="0.35">
          <path id="Path_359" data-name="Path 359" d="M1342.86,1693.681l-.3,5.3a.663.663,0,0,1-.7.623,6.974,6.974,0,0,1-6.565-7.361l.157-2.745a6.978,6.978,0,0,0,6.109,4.453l.7.042A.685.685,0,0,0,1342.86,1693.681Z" transform="translate(-1335.278 -1689.5)" fill="#371a45"/>
        </g>
        <g id="Group_255" data-name="Group 255" transform="translate(0 20.601)">
          <path id="Path_360" data-name="Path 360" d="M1326.51,1498h-.089a7.821,7.821,0,0,1-7.361-8.257l.372-6.518a7.821,7.821,0,0,1,8.257-7.361h0a1.518,1.518,0,0,1,1.425,1.593l-1.09,19.118a1.481,1.481,0,0,1-.5,1.043A1.537,1.537,0,0,1,1326.51,1498Zm.723-20.46a6.129,6.129,0,0,0-6.109,5.779l-.372,6.518a6.132,6.132,0,0,0,5.59,6.455l1.069-18.752Z" transform="translate(-1319.046 -1475.846)" fill="#371a45"/>
        </g>
        <g id="Group_256" data-name="Group 256" transform="translate(13.285 51.38)" opacity="0.35">
          <path id="Path_361" data-name="Path 361" d="M1623.354,2071.222a31.908,31.908,0,0,1-2.615,2.641,32.625,32.625,0,0,1-46.232-2.536c-.671-.76-1.31-1.546-1.907-2.358a7.253,7.253,0,0,1,1.069-.084h4.9c6.706-3.657,13.423-5.585,17.306-5.585s10.6,1.928,17.3,5.585h4.93a7.009,7.009,0,0,1,1.053.079A7.3,7.3,0,0,1,1623.354,2071.222Z" transform="translate(-1572.6 -2063.3)" fill="#371a45"/>
        </g>
        <g id="Group_257" data-name="Group 257" transform="translate(6.78 0.693)">
          <circle id="Ellipse_20" data-name="Ellipse 20" cx="32.631" cy="32.631" r="32.631" transform="translate(0.155 0.158)" fill="#fff"/>
          <path id="Path_362" data-name="Path 362" d="M1481.3,1161.47a33.323,33.323,0,0,1-4.254-.272,32.785,32.785,0,1,1,36.7-28.335l-.152-.021.152.021a32.8,32.8,0,0,1-32.442,28.607Zm-.136-65.272a32.681,32.681,0,1,0,4.213.278A31.718,31.718,0,0,0,1481.162,1096.2Z" transform="translate(-1448.444 -1095.893)" fill="#371a45"/>
        </g>
        <g id="Group_258" data-name="Group 258" transform="translate(6.931 27.787)" opacity="0.35">
          <path id="Path_363" data-name="Path 363" d="M1516.6,1618.339a32.251,32.251,0,0,1-.267,4.522,32.631,32.631,0,0,1-64.727-8.331c.068-.514.141-1.027.236-1.53a32.63,32.63,0,0,0,64.759,5.339Z" transform="translate(-1451.339 -1613)" fill="#371a45"/>
        </g>
        <g id="Group_259" data-name="Group 259" transform="translate(6.087)">
          <path id="Path_364" data-name="Path 364" d="M1468.768,1149.621a34.671,34.671,0,0,1-4.344-.278,33.4,33.4,0,1,1,4.344.278Zm-.136-65.267a31.786,31.786,0,1,0,31.588,35.843h0a31.788,31.788,0,0,0-27.47-35.581A32.027,32.027,0,0,0,1468.632,1084.354Z" transform="translate(-1435.221 -1082.66)" fill="#371a45"/>
        </g>
        <g id="Group_260" data-name="Group 260" transform="translate(7.089 10.657)">
          <path id="Path_365" data-name="Path 365" d="M1518.978,1313.866a29.257,29.257,0,0,1-7.524,16.478c-3.055,3.353-14.634,8.519-28.052,7.12-12.444-1.3-23-9.206-25.228-13.161a29.266,29.266,0,0,1-3.641-17.741c1.9-16.792,17.117-22.115,34.915-20.1S1520.88,1297.079,1518.978,1313.866Z" transform="translate(-1454.347 -1286.058)" fill="#5c0fb6"/>
        </g>
        <g id="Group_261" data-name="Group 261" transform="translate(6.244 9.809)">
          <path id="Path_366" data-name="Path 366" d="M1472.78,1323.222a46.01,46.01,0,0,1-4.742-.246c-12.889-1.346-23.535-9.436-25.872-13.586a30.093,30.093,0,0,1-3.746-18.254c.933-8.236,4.957-14.209,11.956-17.762,6.1-3.1,14.366-4.16,23.9-3.081s17.342,3.971,22.6,8.352c6.025,5.025,8.608,11.752,7.676,19.988h0a30.058,30.058,0,0,1-7.739,16.949C1494.135,1318.517,1484.773,1323.222,1472.78,1323.222Zm-5.512-51.645c-6.319,0-11.81,1.116-16.132,3.311-6.46,3.275-10.175,8.807-11.039,16.441a28.4,28.4,0,0,0,3.537,17.232c2.122,3.772,12.438,11.469,24.578,12.732,13.455,1.4,24.615-3.856,27.339-6.848a28.412,28.412,0,0,0,7.309-16c.865-7.634-1.514-13.858-7.078-18.5-5-4.17-12.506-6.926-21.707-7.969A59.222,59.222,0,0,0,1467.268,1271.577Zm36.435,26.962Z" transform="translate(-1438.227 -1269.884)" fill="#371a45"/>
        </g>
        <g id="Group_262" data-name="Group 262" transform="translate(55.825 28.264)" opacity="0.7">
          <ellipse id="Ellipse_21" data-name="Ellipse 21" cx="5.774" cy="4.186" rx="5.774" ry="4.186" transform="translate(0 11.058) rotate(-73.261)" fill="#fff"/>
        </g>
        <g id="Group_263" data-name="Group 263" transform="translate(51.945 42.433)" opacity="0.7">
          <ellipse id="Ellipse_22" data-name="Ellipse 22" cx="2.651" cy="2.274" rx="2.651" ry="2.274" transform="translate(0 4.818) rotate(-65.316)" fill="#fff"/>
        </g>
        <g id="Group_264" data-name="Group 264" transform="translate(23.109 22.091)" opacity="0.35">
          <path id="Path_367" data-name="Path 367" d="M1804.221,1504.3c3.51,4.207,5.255,9.63,4.49,16.373a29.286,29.286,0,0,1-7.519,16.478c-3.054,3.353-14.639,8.519-28.057,7.12a40.155,40.155,0,0,1-13.036-3.778c16.53,1.368,30.645-4.983,34.433-9.143a37.142,37.142,0,0,0,9.546-20.91A33.827,33.827,0,0,0,1804.221,1504.3Z" transform="translate(-1760.1 -1504.3)" fill="#111a28"/>
        </g>
        <g id="Group_265" data-name="Group 265" transform="translate(10.472 6.491)">
          <path id="Path_368" data-name="Path 368" d="M1579.054,1224.34a.849.849,0,0,1-.6-.246.625.625,0,0,1-.058-.063c-.031-.042-.063-.084-.089-.126-4.59-8.273-14.644-13.858-27.575-15.325-13-1.472-24.059,1.86-30.326,9.159-.021.021-.042.047-.063.068a.838.838,0,0,1-1.189-.005.85.85,0,0,1-.016-1.179c6.638-7.712,18.223-11.254,31.782-9.714,13.465,1.53,23.975,7.414,28.843,16.148a.85.85,0,0,1-.115,1.053A.9.9,0,0,1,1579.054,1224.34Zm0-.854Z" transform="translate(-1518.912 -1206.555)" fill="#371a45"/>
        </g>
        <g id="Group_266" data-name="Group 266" transform="translate(12.829 15.121)" opacity="0.7">
          <path id="Path_369" data-name="Path 369" d="M1564.445,1398.111s-3.322-17.154,6.355-22.739,22.514-4.108,22.121-3.317c0,0-14.607,1.829-21.445,12.438C1566.2,1392.678,1564.445,1398.111,1564.445,1398.111Z" transform="translate(-1563.895 -1371.268)" fill="#fff"/>
        </g>
      </g>
      <g id="Group_268" data-name="Group 268" transform="translate(46.662 23.202)">
        <path id="Path_370" data-name="Path 370" d="M1855.778,977.7a75.887,75.887,0,0,0-1.5,7.833,1.431,1.431,0,0,0,.676,1.415c3.5,2.132,18.207,10.316,36.005,9.321,0,0,2.986-8.472,3.856-11.427" transform="translate(-1854.267 -977.7)" fill="#fff"/>
      </g>
      <g id="Group_269" data-name="Group 269" transform="translate(45.817 22.356)">
        <path id="Path_371" data-name="Path 371" d="M1872.655,981.909c-16.415,0-29.6-7.2-33.417-9.53a2.286,2.286,0,0,1-1.079-2.248,76.966,76.966,0,0,1,1.514-7.932.847.847,0,0,1,1.64.424,74.765,74.765,0,0,0-1.478,7.733.59.59,0,0,0,.278.582c3.9,2.379,17.872,10,34.957,9.227.671-1.907,2.924-8.378,3.657-10.851a.847.847,0,0,1,1.624.482c-.87,2.939-3.746,11.123-3.872,11.469a.856.856,0,0,1-.749.566C1874.693,981.877,1873.666,981.909,1872.655,981.909Z" transform="translate(-1838.14 -961.562)" fill="#371a45"/>
      </g>
      <g id="Group_270" data-name="Group 270" transform="translate(47.685 21.714)" opacity="0.3">
        <path id="Path_372" data-name="Path 372" d="M1913.766,956.446c-.634,2.148-2.887,7.5-4.066,10.248a10.237,10.237,0,0,1-8.053-6,15.728,15.728,0,0,1-15.682,1.189,15.5,15.5,0,0,1-7.094-7.005,10.332,10.332,0,0,1-5.072-.383,33.439,33.439,0,0,1,.927-5.2Z" transform="translate(-1873.8 -949.3)" fill="#371a45"/>
      </g>
      <g id="Group_271" data-name="Group 271" transform="translate(41.394 0.793)">
        <path id="Path_373" data-name="Path 373" d="M1807.655,579.56a10.6,10.6,0,0,1-14.1,5.093,10.226,10.226,0,0,1-4.888-5.056,15.727,15.727,0,0,1-15.681,1.189,15.474,15.474,0,0,1-7.094-7.005,10.253,10.253,0,0,1-6.266-.87c-5.344-2.593-7.445-9.284-4.694-14.948s9.31-8.158,14.649-5.564a9.579,9.579,0,0,1,1.315.765,15.622,15.622,0,0,1,25.039,11.448,10.226,10.226,0,0,1,7,.718A10.6,10.6,0,0,1,1807.655,579.56Z" transform="translate(-1753.722 -549.999)" fill="#fff" stroke="#371a45" stroke-linecap="round" stroke-linejoin="round"/>
      </g>
      <g id="Group_272" data-name="Group 272" transform="translate(41.392 0.793)" opacity="0.3">
        <path id="Path_374" data-name="Path 374" d="M1807.62,579.56a10.607,10.607,0,0,1-14.1,5.093,10.248,10.248,0,0,1-4.888-5.056,15.728,15.728,0,0,1-15.682,1.189,15.5,15.5,0,0,1-7.094-7.005,10.252,10.252,0,0,1-6.266-.87,10.673,10.673,0,0,1-5.894-9.242,11.884,11.884,0,0,1,1.195-5.706c2.751-5.664,9.31-8.158,14.655-5.564a9.211,9.211,0,0,1,1.31.765,15.765,15.765,0,0,1,16.279-1.609,15.494,15.494,0,0,1,7.272,7.377c.094.2.189.4.267.6a16.043,16.043,0,0,1,1.226,5.077,10.249,10.249,0,0,1,11.391,4.8A10.81,10.81,0,0,1,1807.62,579.56Z" transform="translate(-1753.685 -549.999)" fill="#371a45"/>
      </g>
      <g id="Group_273" data-name="Group 273" transform="translate(41.387 0.798)">
        <path id="Path_375" data-name="Path 375" d="M1806.729,575.348c-2.588,5.334-6.995,7.34-11.385,3.647-2.688-2.258-1.776-4.962-1.734-7.005-3.882,5.349-12.947,8.383-20.659,3.966-4.181-2.394-6.885-6.848-7.319-9.771-2.8,5.459-5.826,4.061-7.812,3.039-3.034-1.556-3.217-3.678-4.223-5.454a11.887,11.887,0,0,1,1.195-5.706c2.751-5.664,9.31-8.158,14.655-5.564a9.21,9.21,0,0,1,1.31.765,15.765,15.765,0,0,1,16.279-1.609,15.5,15.5,0,0,1,7.272,7.377q.039.322.063.644l.2-.047a16.047,16.047,0,0,1,1.226,5.077,10.249,10.249,0,0,1,11.39,4.8A7.819,7.819,0,0,1,1806.729,575.348Z" transform="translate(-1753.585 -550.099)" fill="#fff"/>
      </g>
      <g id="Group_274" data-name="Group 274" transform="translate(40.409 0)">
        <path id="Path_376" data-name="Path 376" d="M1780.48,571.637a11.106,11.106,0,0,1-9.5-5.391,16.657,16.657,0,0,1-15.682,1.273,16.207,16.207,0,0,1-7.424-6.6,11.075,11.075,0,0,1-6.2-.823,11.243,11.243,0,0,1-6.052-6.628,12.542,12.542,0,0,1,.414-9.269c2.74-6.172,9.724-9.085,15.572-6.492a10.436,10.436,0,0,1,.938.472,16.449,16.449,0,0,1,26.181,10.563,11.111,11.111,0,0,1,12.59,7.1,11.8,11.8,0,0,1-6.644,14.969A11.142,11.142,0,0,1,1780.48,571.637Zm-9.206-7.461a.909.909,0,0,1,.2.026.857.857,0,0,1,.555.451,9.317,9.317,0,0,0,4.642,4.485,9.415,9.415,0,0,0,7.377.115,9.974,9.974,0,0,0,5.423-5.255h0a9.978,9.978,0,0,0,.262-7.55,9.418,9.418,0,0,0-11.479-5.831.849.849,0,0,1-1.079-.723,14.776,14.776,0,0,0-24.049-10.012.851.851,0,0,1-.985.047,9.262,9.262,0,0,0-1.221-.655c-4.993-2.216-10.976.309-13.334,5.627a10.82,10.82,0,0,0-.367,8.016,9.554,9.554,0,0,0,5.14,5.643,9.435,9.435,0,0,0,5.774.6.841.841,0,0,1,.917.424,14.582,14.582,0,0,0,6.932,6.392,14.973,14.973,0,0,0,14.8-1.64A.828.828,0,0,1,1771.275,564.177Z" transform="translate(-1734.925 -534.865)" fill="#371a45"/>
      </g>
      <g id="Group_275" data-name="Group 275" transform="translate(76.439 26.096)">
        <path id="Path_377" data-name="Path 377" d="M2426.456,1033.34c-.152.361-.309.686-.487,1.016s-.362.65-.555.969a21.03,21.03,0,0,1-1.284,1.844l-.005.005a.855.855,0,0,1-1.352-1.048,1.119,1.119,0,0,1,.157-.157,20.576,20.576,0,0,0,1.6-1.357c.251-.241.5-.492.744-.749s.477-.529.681-.8l.01-.016a.286.286,0,0,1,.4-.052A.3.3,0,0,1,2426.456,1033.34Z" transform="translate(-2422.594 -1032.939)" fill="#371a45"/>
      </g>
      <g id="Group_276" data-name="Group 276" transform="translate(52.54 20.498)">
        <path id="Path_378" data-name="Path 378" d="M1967.07,926.345c.063.33.147.681.241,1.016s.2.676.32,1.006a19.656,19.656,0,0,0,.807,1.939.853.853,0,1,1-1.54.733,1.028,1.028,0,0,1-.068-.2v-.01a21.469,21.469,0,0,1-.3-2.227c-.026-.372-.047-.744-.058-1.116s0-.739.026-1.127a.288.288,0,0,1,.571-.031Z" transform="translate(-1966.465 -926.088)" fill="#371a45"/>
      </g>
      <g id="Group_277" data-name="Group 277" transform="translate(90.417 125.789)">
        <path id="Path_379" data-name="Path 379" d="M2692.411,2936.832l-.2.545-.209.587c-.136.393-.272.8-.4,1.2-.251.807-.5,1.629-.718,2.462s-.4,1.682-.561,2.546c-.094.43-.147.864-.236,1.3-.073.435-.136.875-.22,1.315v.005a.112.112,0,0,1-.131.089.11.11,0,0,1-.089-.094c-.068-.445-.131-.891-.173-1.336s-.073-.9-.079-1.346a22.4,22.4,0,0,1,.1-2.714,16.968,16.968,0,0,1,.477-2.7c.063-.22.12-.445.2-.666s.147-.44.236-.655.184-.43.283-.645c.052-.1.1-.209.162-.32s.115-.2.2-.335a.784.784,0,0,1,1.4.681Z" transform="translate(-2689.381 -2935.701)" fill="#371a45"/>
      </g>
      <g id="Group_278" data-name="Group 278" transform="translate(16.734 125.78)">
        <path id="Path_380" data-name="Path 380" d="M1284.508,2935.9c.084.131.136.225.2.335s.11.21.162.32c.1.215.2.424.283.645s.168.435.236.655.136.44.2.666a17.009,17.009,0,0,1,.477,2.7,22.4,22.4,0,0,1,.1,2.714c-.01.451-.047.9-.079,1.347s-.1.9-.173,1.336a.113.113,0,0,1-.131.094.117.117,0,0,1-.094-.089v-.005c-.084-.44-.152-.88-.22-1.315-.089-.435-.147-.87-.236-1.3-.162-.859-.351-1.708-.561-2.546s-.461-1.656-.718-2.462c-.131-.4-.262-.8-.4-1.2l-.209-.586-.2-.545-.031-.079a.784.784,0,0,1,1.4-.681Z" transform="translate(-1283.054 -2935.528)" fill="#371a45"/>
      </g>
      <g id="Group_279" data-name="Group 279" transform="translate(32.357 95.213)">
        <path id="Path_381" data-name="Path 381" d="M1583.586,2352.24a31.207,31.207,0,0,1-.147,3.448c-.052.566-.094,1.126-.183,1.677a12.8,12.8,0,0,1-.325,1.6l-.005.026a.855.855,0,0,1-1.677-.2,6.924,6.924,0,0,1,.2-1.76,14.041,14.041,0,0,1,.5-1.661c.189-.545.4-1.085.629-1.614a16.218,16.218,0,0,1,.776-1.572.133.133,0,0,1,.173-.047A.121.121,0,0,1,1583.586,2352.24Z" transform="translate(-1581.247 -2352.121)" fill="#371a45"/>
      </g>
      <g id="Group_280" data-name="Group 280" transform="translate(76.49 95.206)">
        <path id="Path_382" data-name="Path 382" d="M2423.809,2352.057a16.807,16.807,0,0,1,.775,1.572c.23.534.44,1.069.629,1.614a14.087,14.087,0,0,1,.5,1.661,6.935,6.935,0,0,1,.2,1.76.855.855,0,0,1-1.677.2l-.005-.026a12.788,12.788,0,0,1-.325-1.6c-.089-.55-.131-1.111-.183-1.677a31.113,31.113,0,0,1-.146-3.448.121.121,0,0,1,.131-.121A.13.13,0,0,1,2423.809,2352.057Z" transform="translate(-2423.572 -2351.993)" fill="#371a45"/>
      </g>
      <g id="Group_281" data-name="Group 281" transform="translate(63.079 106.901)">
        <path id="Path_383" data-name="Path 383" d="M2170.12,2576.662l-.838-.005a.382.382,0,0,0-.367.267l-.257.8,0-.838a.382.382,0,0,0-.267-.367l-.8-.256.838,0a.382.382,0,0,0,.367-.267l.257-.8-.005.838a.382.382,0,0,0,.267.367Z" transform="translate(-2167.6 -2575.2)" fill="#fff2bd"/>
      </g>
      <g id="Group_282" data-name="Group 282" transform="translate(56.178 109.992)">
        <path id="Path_384" data-name="Path 384" d="M2038.289,2635.395l-.775.121a.356.356,0,0,0-.3.3l-.121.776-.12-.776a.356.356,0,0,0-.3-.3l-.776-.121.776-.12a.356.356,0,0,0,.3-.3l.12-.775.121.775a.356.356,0,0,0,.3.3Z" transform="translate(-2035.9 -2634.2)" fill="#fff2bd"/>
      </g>
      <g id="Group_283" data-name="Group 283" transform="translate(43.038 108.971)">
        <path id="Path_385" data-name="Path 385" d="M1787.453,2615.659l-.739.256a.362.362,0,0,0-.241.351l.021.786-.257-.739a.362.362,0,0,0-.351-.241l-.786.021.739-.257a.361.361,0,0,0,.241-.351l-.021-.786.257.739a.362.362,0,0,0,.351.241Z" transform="translate(-1785.1 -2614.7)" fill="#fff2bd"/>
      </g>
      <g id="Group_284" data-name="Group 284" transform="translate(50.336 106.54)">
        <path id="Path_386" data-name="Path 386" d="M1926.181,2569.086l-.566.157a.269.269,0,0,0-.2.251l-.021.587-.157-.566a.269.269,0,0,0-.251-.2l-.587-.021.566-.157a.269.269,0,0,0,.2-.251l.021-.587.157.566a.268.268,0,0,0,.251.2Z" transform="translate(-1924.4 -2568.3)" fill="#fff2bd"/>
      </g>
      <g id="Group_285" data-name="Group 285" transform="translate(72.73 109.117)">
        <path id="Path_387" data-name="Path 387" d="M2353.754,2618.595l-.645.021a.3.3,0,0,0-.278.215l-.173.624-.021-.645a.3.3,0,0,0-.215-.278l-.623-.173.644-.021a.3.3,0,0,0,.278-.215l.173-.624.021.645a.3.3,0,0,0,.215.278Z" transform="translate(-2351.8 -2617.5)" fill="#fff2bd"/>
      </g>
      <g id="Group_286" data-name="Group 286" transform="translate(35.022 108.525)">
        <path id="Path_388" data-name="Path 388" d="M1633.871,2606.976l-.561.157a.258.258,0,0,0-.194.251l-.021.587-.157-.561a.258.258,0,0,0-.251-.194l-.587-.021.561-.157a.258.258,0,0,0,.194-.251l.021-.587.157.561a.258.258,0,0,0,.251.194Z" transform="translate(-1632.1 -2606.2)" fill="#fff2bd"/>
      </g>
    </g>
  </g>
</svg>
